HIERARCHY
ROOT Root
{
  OFFSET 0.0 0.0 0.0
  CHANNELS 6 Xposition Yposition Zposition Zrotation Yrotation Xrotation
  JOINT Hips
  {
    OFFSET 0.0 100.0 0.0
    CHANNELS 6 Xposition Yposition Zposition Zrotation Yrotation Xrotation
    JOINT Spine1
    {
      OFFSET -0.013727 5.003763 -0.053727
      CHANNELS 3 Zrotation Yrotation Xrotation
      JOINT Spine2
      {
        OFFSET -0.0 7.125301 -0.029825
        CHANNELS 3 Zrotation Yrotation Xrotation
        JOINT Chest
        {
          OFFSET -1e-06 7.550063 -0.815971
          CHANNELS 3 Zrotation Yrotation Xrotation
          JOINT Neck1
          {
            OFFSET -0.181677 26.311295 -0.553348
            CHANNELS 3 Zrotation Yrotation Xrotation
            JOINT Neck2
            {
              OFFSET -3e-06 7.709397 2.302585
              CHANNELS 3 Zrotation Yrotation Xrotation
              JOINT Head
              {
                OFFSET -5e-06 6.128916 1.953709
                CHANNELS 3 Zrotation Yrotation Xrotation
                JOINT HeadEnd
                {
                  OFFSET 0.003598 16.065403 -1.835379
                  CHANNELS 3 Zrotation Yrotation Xrotation
                }
                JOINT Jaw
                {
                  OFFSET 0.002637 0.475592 3.094941
                  CHANNELS 3 Zrotation Yrotation Xrotation
                }
                JOINT LeftEye
                {
                  OFFSET 3.206381 5.380205 7.586883
                  CHANNELS 3 Zrotation Yrotation Xrotation
                }
                JOINT RightEye
                {
                  OFFSET -3.22244 5.361869 7.558234
                  CHANNELS 3 Zrotation Yrotation Xrotation
                }
              }
            }
          }
          JOINT LeftShoulder
          {
            OFFSET 1.621652 23.237164 5.113413
            CHANNELS 3 Zrotation Yrotation Xrotation
            JOINT LeftArm
            {
              OFFSET 14.919846 2e-06 -5.502326
              CHANNELS 3 Zrotation Yrotation Xrotation
              JOINT LeftForeArm
              {
                OFFSET 28.739307 0.0 -0.002588
                CHANNELS 3 Zrotation Yrotation Xrotation
                JOINT LeftHand
                {
                  OFFSET 27.093981 -1e-06 0.002609
                  CHANNELS 3 Zrotation Yrotation Xrotation
                  JOINT LeftHandThumb1
                  {
                    OFFSET 2.276482 -1.392045 3.191413
                    CHANNELS 3 Zrotation Yrotation Xrotation
                    JOINT LeftHandThumb2
                    {
                      OFFSET 4.012836 -1.828127 1.641654
                      CHANNELS 3 Zrotation Yrotation Xrotation
                      JOINT LeftHandThumb3
                      {
                        OFFSET 2.798515 0.0 -3e-06
                        CHANNELS 3 Zrotation Yrotation Xrotation
                        JOINT LeftHandThumbEnd
                        {
                          OFFSET 3.180793 -4e-06 4e-06
                          CHANNELS 3 Zrotation Yrotation Xrotation
                        }
                      }
                    }
                  }
                  JOINT LeftHandIndex1
                  {
                    OFFSET 3.247555 -0.531998 2.296169
                    CHANNELS 3 Zrotation Yrotation Xrotation
                    JOINT LeftHandIndex2
                    {
                      OFFSET 6.364578 0.01206 0.1786
                      CHANNELS 3 Zrotation Yrotation Xrotation
                      JOINT LeftHandIndex3
                      {
                        OFFSET 3.662364 0.0 0.0
                        CHANNELS 3 Zrotation Yrotation Xrotation
                        JOINT LeftHandIndex4
                        {
                          OFFSET 2.329242 4e-06 4e-06
                          CHANNELS 3 Zrotation Yrotation Xrotation
                          JOINT LeftHandIndexEnd
                          {
                            OFFSET 2.759615 -0.180537 -0.113024
                            CHANNELS 3 Zrotation Yrotation Xrotation
                          }
                        }
                      }
                    }
                  }
                  JOINT LeftHandMiddle1
                  {
                    OFFSET 3.163495 0.240981 1.000332
                    CHANNELS 3 Zrotation Yrotation Xrotation
                    JOINT LeftHandMiddle2
                    {
                      OFFSET 6.19078 -0.259278 -1.002548
                      CHANNELS 3 Zrotation Yrotation Xrotation
                      JOINT LeftHandMiddle3
                      {
                        OFFSET 4.35652 -4e-06 -1e-06
                        CHANNELS 3 Zrotation Yrotation Xrotation
                        JOINT LeftHandMiddle4
                        {
                          OFFSET 2.996877 -8e-06 0.0
                          CHANNELS 3 Zrotation Yrotation Xrotation
                          JOINT LeftHandMiddleEnd
                          {
                            OFFSET 2.304287 -0.294569 -0.031741
                            CHANNELS 3 Zrotation Yrotation Xrotation
                          }
                        }
                      }
                    }
                  }
                  JOINT LeftHandRing1
                  {
                    OFFSET 2.882643 -0.053652 -0.322543
                    CHANNELS 3 Zrotation Yrotation Xrotation
                    JOINT LeftHandRing2
                    {
                      OFFSET 5.854541 -0.486202 -1.373841
                      CHANNELS 3 Zrotation Yrotation Xrotation
                      JOINT LeftHandRing3
                      {
                        OFFSET 4.350578 0.0 3e-06
                        CHANNELS 3 Zrotation Yrotation Xrotation
                        JOINT LeftHandRing4
                        {
                          OFFSET 2.651321 7e-06 2e-06
                          CHANNELS 3 Zrotation Yrotation Xrotation
                          JOINT LeftHandRingEnd
                          {
                            OFFSET 1.936105 0.077687 -7.1e-05
                            CHANNELS 3 Zrotation Yrotation Xrotation
                          }
                        }
                      }
                    }
                  }
                  JOINT LeftHandPinky1
                  {
                    OFFSET 2.8655 -0.310005 -1.600378
                    CHANNELS 3 Zrotation Yrotation Xrotation
                    JOINT LeftHandPinky2
                    {
                      OFFSET 5.087849 -1.331141 -1.77123
                      CHANNELS 3 Zrotation Yrotation Xrotation
                      JOINT LeftHandPinky3
                      {
                        OFFSET 3.070974 4e-06 0.0
                        CHANNELS 3 Zrotation Yrotation Xrotation
                        JOINT LeftHandPinky4
                        {
                          OFFSET 1.549672 0.0 1e-06
                          CHANNELS 3 Zrotation Yrotation Xrotation
                          JOINT LeftHandPinkyEnd
                          {
                            OFFSET 1.944893 -0.157802 0.057219
                            CHANNELS 3 Zrotation Yrotation Xrotation
                          }
                        }
                      }
                    }
                  }
                }
              }
            }
          }
          JOINT RightShoulder
          {
            OFFSET -1.380118 23.180309 5.214158
            CHANNELS 3 Zrotation Yrotation Xrotation
            JOINT RightArm
            {
              OFFSET -15.037196 1.2e-05 -5.545604
              CHANNELS 3 Zrotation Yrotation Xrotation
              JOINT RightForeArm
              {
                OFFSET -28.736639 2e-06 -0.002597
                CHANNELS 3 Zrotation Yrotation Xrotation
                JOINT RightHand
                {
                  OFFSET -27.133619 -0.0 0.002613
                  CHANNELS 3 Zrotation Yrotation Xrotation
                  JOINT RightHandThumb1
                  {
                    OFFSET -2.274032 -1.383988 3.163127
                    CHANNELS 3 Zrotation Yrotation Xrotation
                    JOINT RightHandThumb2
                    {
                      OFFSET -4.011429 -1.827466 1.640914
                      CHANNELS 3 Zrotation Yrotation Xrotation
                      JOINT RightHandThumb3
                      {
                        OFFSET -2.794935 -4e-06 -3e-06
                        CHANNELS 3 Zrotation Yrotation Xrotation
                        JOINT RightHandThumbEnd
                        {
                          OFFSET -3.183852 4e-06 1e-06
                          CHANNELS 3 Zrotation Yrotation Xrotation
                        }
                      }
                    }
                  }
                  JOINT RightHandIndex1
                  {
                    OFFSET -3.253266 -0.520057 2.282866
                    CHANNELS 3 Zrotation Yrotation Xrotation
                    JOINT RightHandIndex2
                    {
                      OFFSET -6.341917 0.012471 0.178266
                      CHANNELS 3 Zrotation Yrotation Xrotation
                      JOINT RightHandIndex3
                      {
                        OFFSET -3.654871 -8e-06 -0.0
                        CHANNELS 3 Zrotation Yrotation Xrotation
                        JOINT RightHandIndex4
                        {
                          OFFSET -2.327586 0.0 1e-06
                          CHANNELS 3 Zrotation Yrotation Xrotation
                          JOINT RightHandIndexEnd
                          {
                            OFFSET -2.76179 -0.180656 -0.113078
                            CHANNELS 3 Zrotation Yrotation Xrotation
                          }
                        }
                      }
                    }
                  }
                  JOINT RightHandMiddle1
                  {
                    OFFSET -3.168106 0.246593 1.00103
                    CHANNELS 3 Zrotation Yrotation Xrotation
                    JOINT RightHandMiddle2
                    {
                      OFFSET -6.180828 -0.258836 -1.000895
                      CHANNELS 3 Zrotation Yrotation Xrotation
                      JOINT RightHandMiddle3
                      {
                        OFFSET -4.348901 0.0 -0.0
                        CHANNELS 3 Zrotation Yrotation Xrotation
                        JOINT RightHandMiddle4
                        {
                          OFFSET -3.00024 -4e-06 -2e-06
                          CHANNELS 3 Zrotation Yrotation Xrotation
                          JOINT RightHandMiddleEnd
                          {
                            OFFSET -2.30252 -0.29437 -0.031706
                            CHANNELS 3 Zrotation Yrotation Xrotation
                          }
                        }
                      }
                    }
                  }
                  JOINT RightHandRing1
                  {
                    OFFSET -2.88569 -0.067952 -0.308858
                    CHANNELS 3 Zrotation Yrotation Xrotation
                    JOINT RightHandRing2
                    {
                      OFFSET -5.854198 -0.48613 -1.373731
                      CHANNELS 3 Zrotation Yrotation Xrotation
                      JOINT RightHandRing3
                      {
                        OFFSET -4.33881 -4e-06 -0.0
                        CHANNELS 3 Zrotation Yrotation Xrotation
                        JOINT RightHandRing4
                        {
                          OFFSET -2.654903 -4e-06 4e-06
                          CHANNELS 3 Zrotation Yrotation Xrotation
                          JOINT RightHandRingEnd
                          {
                            OFFSET -1.933568 0.077527 -5.2e-05
                            CHANNELS 3 Zrotation Yrotation Xrotation
                          }
                        }
                      }
                    }
                  }
                  JOINT RightHandPinky1
                  {
                    OFFSET -2.866425 -0.342796 -1.584145
                    CHANNELS 3 Zrotation Yrotation Xrotation
                    JOINT RightHandPinky2
                    {
                      OFFSET -5.091371 -1.332055 -1.772385
                      CHANNELS 3 Zrotation Yrotation Xrotation
                      JOINT RightHandPinky3
                      {
                        OFFSET -3.062664 -4e-06 1e-06
                        CHANNELS 3 Zrotation Yrotation Xrotation
                        JOINT RightHandPinky4
                        {
                          OFFSET -1.546529 4e-06 -2e-06
                          CHANNELS 3 Zrotation Yrotation Xrotation
                          JOINT RightHandPinkyEnd
                          {
                            OFFSET -1.945119 -0.157718 0.057211
                            CHANNELS 3 Zrotation Yrotation Xrotation
                          }
                        }
                      }
                    }
                  }
                }
              }
            }
          }
        }
      }
    }
    JOINT LeftLeg
    {
      OFFSET 10.043214 -8.434526 2.595655
      CHANNELS 3 Zrotation Yrotation Xrotation
      JOINT LeftShin
      {
        OFFSET -1e-06 -43.221752 -0.802913
        CHANNELS 3 Zrotation Yrotation Xrotation
        JOINT LeftFoot
        {
          OFFSET 1e-06 -42.155094 -3.481523
          CHANNELS 3 Zrotation Yrotation Xrotation
          JOINT LeftToeBase
          {
            OFFSET 0.0 -5.059472 13.231529
            CHANNELS 3 Zrotation Yrotation Xrotation
            JOINT LeftToeEnd
            {
              OFFSET -0.009607 -1.647619 6.513017
              CHANNELS 3 Zrotation Yrotation Xrotation
            }
          }
        }
      }
    }
    JOINT RightLeg
    {
      OFFSET -10.047278 -8.29526 2.620317
      CHANNELS 3 Zrotation Yrotation Xrotation
      JOINT RightShin
      {
        OFFSET 1e-06 -43.362206 -0.805556
        CHANNELS 3 Zrotation Yrotation Xrotation
        JOINT RightFoot
        {
          OFFSET 2e-06 -42.117393 -3.478398
          CHANNELS 3 Zrotation Yrotation Xrotation
          JOINT RightToeBase
          {
            OFFSET -0.0 -5.079609 13.284196
            CHANNELS 3 Zrotation Yrotation Xrotation
            JOINT RightToeEnd
            {
              OFFSET 0.009532 -1.634378 6.460591
              CHANNELS 3 Zrotation Yrotation Xrotation
            }
          }
        }
      }
    }
  }
}
MOTION
Frames: 4
Frame Time: 0.03333333333333333
0.190054 -0.903702 0.57289 0.0 -0.0 0.0 0.190054 99.076424 0.57289 0.402473 -1.901466 -4.680659 0.848158 -0.277761 -1.697203 -0.714317 -1.750473 -5.789788 0.273533 -2.781876 14.860208 -4.345071 3.421514 -5.32094 0.22472 2.736881 -3.380981 0.911185 2.160283 -24.5324 7.7e-05 -2.3e-05 6e-06 0.022549 -0.029333 0.102324 0.478933 -3.783201 -10.150024 -0.429591 3.730504 -10.118569 5.693055 -8.060482 8.98669 19.202986 -31.554077 -66.265503 -179.336807 -36.897751 -175.924454 23.859856 25.392136 -89.518356 -5.882109 9.861286 0.702592 -10.936875 -0.360578 7.156212 1e-06 8.774825 -1e-06 -14.116396 17.166216 6.669375 -1.844032 2.498504 -2.507278 -10.163603 4.678945 4.621112 -20.976027 -3e-06 7e-06 -21.22629 2.451697 -3.593998 -0.0 -6e-06 0.0 -1.362682 2.240798 -0.746323 -21.334921 0.584909 3.008328 -13.821217 -1e-06 5e-06 -23.887175 -0.249075 -0.839478 -59.200069 2.448855 -1.344542 -0.294026 1.679686 0.833257 -14.218214 0.093213 1.300584 -34.212059 -0.28756 0.967177 -20.033218 0.964539 1.212848 -0.0 1e-06 -1e-06 -3.440388 0.788232 0.501654 -15.928192 -3.16731 2.999712 -6.338827 -2e-06 4e-06 -18.123451 3.648185 -4.905667 -3e-06 1e-06 -2e-06 13.16698 9.554557 16.644457 64.672012 10.616939 9.377901 0.243731 23.280924 0.121821 3.896322 -0.623102 -0.207845 2.243543 -5.255037 -3.180156 14.282894 -0.826595 6.952499 -2e-06 -12.690607 0.0 16.128956 -17.478987 2.70585 1.665667 -1.955922 -2.878299 4.727799 -4.170588 4.993924 11.020528 3e-06 -3e-06 12.109055 -3.735717 -2.866786 -0.0 -1e-06 -1e-06 1.291986 -1.92855 -1.49809 14.800131 0.567468 3.865604 14.242577 -1.341736 -6.660661 19.631969 0.143928 -0.648248 49.909084 -0.609473 -6.112467 0.353029 -1.511152 -0.03194 20.222797 3.68431 2.316627 18.787273 4e-06 -5e-06 10.751633 -0.479867 1.397903 -2e-06 -1e-06 2e-06 3.273808 0.305947 -0.58011 21.486816 11.830376 2.26613 8.16293 1e-06 -2e-06 18.399082 -3.798985 -4.94058 5e-06 1e-06 -1e-06 3.583635 7.005703 8.855784 -0.023557 -0.132913 5.597527 -5.432196 5.967733 -9.86663 1.696526 -2.126561 0.077711 -0.0 -0.0 2e-06 -6.829672 4.828657 3.300594 -0.06224 0.245521 9.490462 6.931632 7.824526 -8.653619 -1.417785 0.911715 -0.749804 0.0 0.0 -1e-06 
0.167541 -0.903702 0.587076 0.0 -0.0 0.0 0.167541 99.077156 0.587076 0.391855 -1.902969 -4.622713 0.839887 -0.293317 -1.713371 -0.721545 -1.770348 -5.796908 0.241193 -2.782724 14.847638 -4.421853 3.458152 -5.294591 0.214082 2.7767 -3.384371 0.946475 2.126099 -24.395695 7.7e-05 -2.2e-05 5e-06 0.020402 -0.034622 0.101442 0.480554 -3.787391 -10.157843 -0.43554 3.724389 -10.129807 5.698353 -8.071669 8.971792 18.920935 -31.804796 -65.997124 -179.405563 -36.940105 -176.035217 24.021807 25.45318 -89.204742 -5.88211 9.86129 0.702591 -10.936878 -0.360576 7.156212 0.0 8.774831 -2e-06 -14.146392 17.133205 6.653477 -1.844034 2.498505 -2.507278 -10.163605 4.678946 4.621112 -20.976036 -1e-06 6e-06 -21.226295 2.451702 -3.593999 0.0 -5e-06 -1e-06 -1.362682 2.240799 -0.746322 -21.334923 0.584911 3.008328 -13.821219 1e-06 5e-06 -23.887182 -0.249074 -0.839482 -59.199188 2.454828 -1.346757 -0.294025 1.679687 0.833257 -14.218217 0.093218 1.300584 -34.212067 -0.287558 0.967176 -20.033226 0.964541 1.212846 -1e-06 2e-06 -1e-06 -3.440391 0.788233 0.501657 -15.928196 -3.167311 2.999712 -6.33883 -0.0 3e-06 -18.123459 3.648185 -4.905671 -3e-06 1e-06 -1e-06 13.179295 9.601611 16.635244 64.671722 10.658786 9.490698 0.197449 23.211222 0.111782 3.855023 -0.701352 -0.246338 2.243543 -5.255038 -3.180158 14.282896 -0.826596 6.952501 -1e-06 -12.690609 1e-06 16.106518 -17.447508 2.724381 1.665667 -1.955922 -2.878299 4.7278 -4.170591 4.993924 11.020531 2e-06 -3e-06 12.109058 -3.735718 -2.866786 -1e-06 -0.0 0.0 1.291986 -1.928551 -1.498089 14.800132 0.567468 3.865606 14.242579 -1.341737 -6.660661 19.631975 0.143927 -0.648247 49.880749 -0.614267 -6.10672 0.353029 -1.511152 -0.031939 20.222801 3.684311 2.316627 18.787277 5e-06 -5e-06 10.751633 -0.479868 1.397905 -2e-06 -1e-06 1e-06 3.273808 0.305947 -0.580112 21.48682 11.830381 2.266131 8.16293 1e-06 -2e-06 18.39909 -3.798985 -4.940581 5e-06 1e-06 -2e-06 3.595856 6.957622 8.79228 -0.024623 -0.127624 5.639489 -5.4729 5.982633 -9.893214 1.696183 -2.12061 0.082835 -0.0 0.0 2e-06 -6.801285 4.872286 3.234731 -0.066572 0.247813 9.531215 6.918324 7.773136 -8.679777 -1.420388 0.904483 -0.710831 -0.0 -0.0 -1e-06 
0.152276 -0.903702 0.607304 0.0 -0.0 0.0 0.152276 99.079613 0.607304 0.381315 -1.922805 -4.570803 0.832787 -0.30064 -1.734127 -0.729679 -1.785511 -5.805246 0.214477 -2.798559 14.849999 -4.532953 3.494504 -5.270261 0.204758 2.809871 -3.38929 1.002331 2.12026 -24.322365 7.7e-05 -2.3e-05 5e-06 0.018589 -0.038824 0.103465 0.485665 -3.788564 -10.166889 -0.444419 3.71751 -10.140216 5.703201 -8.036572 8.985227 18.795435 -32.062702 -66.002754 -179.457199 -36.904652 -176.14212 24.151274 25.48678 -89.015465 -5.882108 9.861292 0.70259 -10.936877 -0.360576 7.156213 -0.0 8.77483 -1e-06 -14.144849 17.10656 6.62579 -1.844032 2.498505 -2.507278 -10.163604 4.678946 4.621113 -20.97603 -2e-06 7e-06 -21.226295 2.4517 -3.593999 1e-06 -5e-06 -0.0 -1.362681 2.2408 -0.746324 -21.334925 0.584911 3.008328 -13.821218 0.0 4e-06 -23.887178 -0.249075 -0.839481 -59.100407 2.459717 -1.350716 -0.294026 1.67969 0.833256 -14.218217 0.093216 1.300583 -34.212067 -0.28756 0.967176 -20.033226 0.96454 1.212848 -0.0 1e-06 -0.0 -3.44039 0.788232 0.501656 -15.928192 -3.167311 2.999713 -6.338829 -2e-06 2e-06 -18.123453 3.648184 -4.905672 -4e-06 -0.0 -1e-06 13.217094 9.624002 16.610353 64.686218 10.706802 9.532206 0.16947 23.141977 0.106762 3.821582 -0.783976 -0.346657 2.243542 -5.255038 -3.180156 14.282896 -0.826596 6.952504 -2e-06 -12.69061 1e-06 16.08156 -17.429192 2.749531 1.665667 -1.955923 -2.878299 4.727799 -4.170588 4.993925 11.020529 3e-06 -1e-06 12.109055 -3.735717 -2.866784 -1e-06 -1e-06 -1e-06 1.291986 -1.92855 -1.498088 14.800132 0.567468 3.865609 14.242577 -1.341736 -6.66066 19.631973 0.143927 -0.648246 49.834789 -0.62133 -6.089228 0.353029 -1.511152 -0.03194 20.222797 3.684311 2.316631 18.787273 5e-06 -3e-06 10.751631 -0.47987 1.397907 -1e-06 -1e-06 0.0 3.273808 0.305947 -0.58011 21.486818 11.830379 2.266132 8.16293 3e-06 -1e-06 18.399088 -3.798986 -4.940578 5e-06 0.0 -2e-06 3.610954 6.92219 8.774448 -0.024966 -0.124946 5.613837 -5.516769 5.986355 -9.893496 1.694705 -2.115848 0.086484 -0.0 -1e-06 2e-06 -6.772269 4.953556 3.197023 -0.066509 0.241575 9.528019 6.916206 7.689925 -8.690868 -1.422498 0.905938 -0.671 0.0 0.0 -1e-06 
0.142195 -0.903702 0.629753 0.0 -0.0 0.0 0.142195 99.079918 0.629753 0.361163 -1.959831 -4.529148 0.831589 -0.304177 -1.757179 -0.732585 -1.792385 -5.816636 0.203837 -2.828193 14.871268 -4.663805 3.522654 -5.238182 0.192547 2.837914 -3.390349 1.075737 2.140091 -24.293972 7.7e-05 -2.2e-05 4e-06 0.017831 -0.04079 0.107056 0.492427 -3.788262 -10.177152 -0.452862 3.713947 -10.150006 5.707741 -7.980835 9.054216 18.800589 -32.277397 -66.148537 -179.55368 -36.747303 -176.218887 24.275673 25.465504 -88.872795 -5.882111 9.861295 0.702592 -10.936885 -0.360575 7.156219 -1e-06 8.774833 -3e-06 -14.126326 17.105711 6.598486 -1.844033 2.498505 -2.50728 -10.16361 4.678949 4.621118 -20.976044 -4e-06 9e-06 -21.226301 2.451703 -3.593999 0.0 -5e-06 0.0 -1.362682 2.240801 -0.746323 -21.334934 0.58491 3.008333 -13.821224 -1e-06 6e-06 -23.887192 -0.249075 -0.839479 -58.960972 2.462714 -1.355805 -0.294026 1.679689 0.833256 -14.218224 0.093214 1.300586 -34.212086 -0.287561 0.967181 -20.033232 0.96454 1.212852 -1e-06 1e-06 -0.0 -3.440392 0.788233 0.501656 -15.928201 -3.167312 2.999713 -6.338833 -3e-06 4e-06 -18.123463 3.648187 -4.905671 -4e-06 1e-06 -1e-06 13.253641 9.617908 16.597525 64.741776 10.784615 9.474382 0.166439 23.074774 0.105939 3.791424 -0.864832 -0.46772 2.243543 -5.255038 -3.18016 14.282902 -0.826596 6.952505 -2e-06 -12.69061 1e-06 16.062475 -17.434774 2.773052 1.665668 -1.955923 -2.878301 4.727802 -4.17059 4.993925 11.020535 3e-06 -3e-06 12.10906 -3.735717 -2.866788 -1e-06 -0.0 1e-06 1.291987 -1.92855 -1.49809 14.800136 0.567469 3.865608 14.242582 -1.341737 -6.660663 19.631983 0.143927 -0.648248 49.790775 -0.631836 -6.071309 0.353029 -1.511152 -0.031938 20.222803 3.684311 2.316631 18.787283 5e-06 -3e-06 10.751633 -0.47987 1.397905 -1e-06 -1e-06 1e-06 3.273809 0.305947 -0.58011 21.486828 11.830383 2.266133 8.162933 2e-06 -2e-06 18.399096 -3.798985 -4.940581 5e-06 1e-06 -2e-06 3.639866 6.920622 8.752636 -0.0247 -0.124528 5.630018 -5.560049 5.970953 -9.917189 1.693474 -2.112769 0.08019 0.0 -1e-06 2e-06 -6.729458 5.069905 3.168902 -0.067029 0.23314 9.516956 6.90753 7.587875 -8.7018 -1.423574 0.91365 -0.648367 0.0 0.0 -1e-06 
